<svg width="18" height="16" viewBox="0 0 18 16" fill="none" xmlns="http://www.w3.org/2000/svg">
<path d="M15.8 2.16672C14.9166 1.28106 13.7457 0.740507 12.4986 0.642698C11.2516 0.54489 10.0106 0.896278 9.00001 1.63339C7.93972 0.844754 6.62 0.487149 5.30661 0.632588C3.99321 0.778026 2.78371 1.4157 1.92165 2.41721C1.05959 3.41872 0.609024 4.70966 0.660673 6.03007C0.712322 7.35048 1.26235 8.60228 2.20001 9.53339L7.37501 14.7167C7.80835 15.1432 8.39199 15.3822 9.00001 15.3822C9.60802 15.3822 10.1917 15.1432 10.625 14.7167L15.8 9.53339C16.773 8.55444 17.3191 7.23028 17.3191 5.85006C17.3191 4.46983 16.773 3.14567 15.8 2.16672V2.16672ZM14.625 8.38339L9.45001 13.5584C9.39112 13.6179 9.32103 13.6651 9.24379 13.6973C9.16655 13.7295 9.08369 13.7461 9.00001 13.7461C8.91632 13.7461 8.83346 13.7295 8.75622 13.6973C8.67898 13.6651 8.60889 13.6179 8.55001 13.5584L3.37501 8.35839C2.72147 7.69034 2.35551 6.79294 2.35551 5.85839C2.35551 4.92384 2.72147 4.02644 3.37501 3.35839C4.04097 2.70088 4.93915 2.3322 5.87501 2.3322C6.81086 2.3322 7.70904 2.70088 8.37501 3.35839C8.45248 3.4365 8.54464 3.49849 8.64619 3.5408C8.74774 3.58311 8.85666 3.60489 8.96667 3.60489C9.07668 3.60489 9.1856 3.58311 9.28715 3.5408C9.3887 3.49849 9.48087 3.4365 9.55834 3.35839C10.2243 2.70088 11.1225 2.3322 12.0583 2.3322C12.9942 2.3322 13.8924 2.70088 14.5583 3.35839C15.2209 4.01768 15.5988 4.91022 15.6113 5.84479C15.6238 6.77937 15.2697 7.68167 14.625 8.35839V8.38339Z" fill="#FA4A69"/>
</svg>
