<svg width="145" height="36" viewBox="0 0 145 36" fill="none" xmlns="http://www.w3.org/2000/svg">
<path d="M68.5126 21.5295L66.6441 26.7198C66.6441 26.8344 66.5511 26.9274 66.4365 26.9274H63.5299C63.3223 26.9274 63.3223 26.9274 63.3223 26.7198C64.9832 22.3599 67.4745 14.8859 69.343 9.90316C69.4712 9.35851 69.5408 8.80171 69.5506 8.24226C69.5506 8.03465 69.5506 8.03465 69.7583 8.03465H73.7029C73.9105 7.82704 73.9105 8.03465 73.9105 8.03465C75.9866 14.0554 78.478 20.4914 80.5541 26.5122C80.5541 26.7198 80.5541 26.7198 80.3465 26.7198H77.0247C76.8171 26.7198 76.8171 26.7198 76.8171 26.5122L74.9486 21.3218H68.5126V21.5295ZM74.3257 18.6229C73.7029 16.7544 72.2496 12.8097 71.8344 10.7336C71.4192 12.6021 70.1735 15.9239 69.343 18.6229H74.3257ZM82.4226 19.8686C82.4216 17.7756 83.2959 15.7775 84.8338 14.3579C86.3718 12.9383 88.4333 12.2264 90.5195 12.3945C91.0815 12.3503 91.6466 12.4209 92.1804 12.6021V6.37375C92.1804 6.16614 92.1804 6.16614 92.388 6.16614H95.5022C95.7098 6.16614 95.7098 6.16614 95.7098 6.37375V25.2665C95.7098 25.4741 95.7098 25.4741 95.5022 25.4741C93.682 26.3448 91.7048 26.8391 89.689 26.9274C85.3292 27.135 82.4226 24.8513 82.4226 19.8686ZM91.9728 15.5087C91.439 15.3275 90.8739 15.2568 90.3119 15.3011C89.0992 15.2341 87.9179 15.7014 87.0793 16.58C86.2406 17.4586 85.8287 18.6603 85.952 19.8686C85.952 23.1904 87.8205 24.436 90.1043 24.436C90.7271 24.436 91.5576 24.2284 92.1804 24.2284V15.5087H91.9728ZM113.149 19.6609C113.322 21.6183 112.649 23.5562 111.3 24.9848C109.951 26.4134 108.055 27.1961 106.09 27.135C104.158 27.2168 102.282 26.4702 100.934 25.0826C99.5858 23.695 98.8938 21.7982 99.0316 19.8686C98.9154 17.9081 99.6436 15.9916 101.032 14.6028C102.421 13.2141 104.338 12.486 106.298 12.6021C108.186 12.4851 110.03 13.1987 111.347 14.5558C112.664 15.9128 113.323 17.7777 113.149 19.6609ZM102.561 19.6609C102.561 22.5675 103.807 24.436 106.09 24.436C107.959 24.436 109.412 23.1904 109.412 19.6609C109.412 16.962 108.374 14.8859 105.883 14.8859C104.014 15.0935 102.561 16.7544 102.561 19.6609ZM119.378 6.37375C119.585 6.37375 119.585 6.37375 119.585 6.58136V13.225C120.574 12.8189 121.631 12.6075 122.699 12.6021C124.462 12.5394 126.168 13.2264 127.395 14.4929C128.622 15.7593 129.254 17.4865 129.135 19.2457C129.144 21.469 128.236 23.5976 126.626 25.1299C125.015 26.6622 122.843 27.4626 120.623 27.3426C119.148 27.3396 117.681 27.1299 116.263 26.7198C116.208 26.7198 116.156 26.6979 116.117 26.659C116.078 26.62 116.056 26.5672 116.056 26.5122V6.58136C116.056 6.37375 116.056 6.37375 116.263 6.37375H119.378ZM122.077 15.3011C121.298 15.3194 120.528 15.4595 119.793 15.7163V24.2284C120.327 24.4097 120.892 24.4803 121.454 24.436C122.726 24.3989 123.93 23.8484 124.79 22.9098C125.651 21.9712 126.095 20.7245 126.021 19.4533C126.066 18.3748 125.672 17.3242 124.929 16.5416C124.185 15.759 123.156 15.3114 122.077 15.3011ZM135.779 20.4914C135.779 22.7751 137.232 24.2284 140.139 24.2284C141.341 24.2062 142.532 23.996 143.668 23.6056C143.783 23.6056 143.876 23.6985 143.876 23.8132V26.0969C143.876 26.3045 143.876 26.3045 143.668 26.5122C142.313 27.1659 140.809 27.4522 139.308 27.3426C137.337 27.5011 135.395 26.7866 133.997 25.388C132.598 23.9895 131.883 22.0477 132.042 20.0762C131.86 18.1523 132.501 16.2414 133.807 14.8169C135.113 13.3924 136.961 12.5876 138.893 12.6021C140.513 12.5242 142.09 13.1334 143.236 14.2799C144.383 15.4263 144.992 17.0034 144.914 18.6229C144.935 19.2525 144.865 19.8819 144.706 20.4914H135.779ZM140.346 18.2077C141.385 18.2077 141.592 18 141.592 18V17.5848C141.576 16.8375 141.258 16.1285 140.71 15.6198C140.163 15.1112 139.432 14.8464 138.686 14.8859C136.817 14.8859 135.779 16.3391 135.571 18.2077H140.346Z" fill="black" fill-opacity="0.3"/>
<path d="M24.7059 0.352905L39.2388 35.0242V0.352905H24.7059ZM0 0.352905V35.0242L14.5329 0.352905H0ZM13.2872 27.9654H19.9308L22.8374 35.0242H28.8581L19.5156 13.0173L13.2872 27.9654Z" fill="black" fill-opacity="0.3"/>
</svg>
