<svg width="113" height="38" viewBox="0 0 113 38" fill="none" xmlns="http://www.w3.org/2000/svg">
<path fill-rule="evenodd" clip-rule="evenodd" d="M14.6305 13.5497V17.5409L24.0509 17.5368C23.762 19.7381 23.0288 21.3499 21.9143 22.478C20.5405 23.8692 18.3964 25.4003 14.6305 25.4003C8.82607 25.4003 4.28436 20.6628 4.28436 14.7841C4.28436 8.90539 8.82607 4.16772 14.6305 4.16772C17.7633 4.16772 20.0498 5.41471 21.7384 7.01797L24.5194 4.20166C22.1661 1.924 19.0334 0.176514 14.6343 0.176514C6.68575 0.176514 0 6.7338 0 14.7841C0 22.8344 6.68575 29.3916 14.6343 29.3916C18.9242 29.3916 22.1624 27.9665 24.6952 25.2944C27.3003 22.6561 28.1093 18.9534 28.1093 15.959C28.1093 15.0682 28.0428 14.2455 27.9131 13.5497H14.6305ZM94.093 28.8189V1.24952H90.114V28.8189H94.093ZM39.0128 29.3957C44.147 29.3957 48.3314 25.4045 48.3314 19.9881C48.3314 14.5336 44.147 10.5807 39.0128 10.5807C33.8768 10.5807 29.6924 14.5336 29.6924 19.9881C29.6924 25.4045 33.8768 29.3957 39.0128 29.3957ZM39.0128 14.2877C41.8272 14.2877 44.2526 16.6035 44.2526 19.9881C44.2526 23.3348 41.8272 25.6887 39.0128 25.6887C36.1986 25.6887 33.7731 23.339 33.7731 19.9881C33.7731 16.6035 36.1986 14.2877 39.0128 14.2877ZM59.1182 29.3957C64.2524 29.3957 68.4368 25.4045 68.4368 19.9881C68.4368 14.5336 64.2524 10.5807 59.1182 10.5807C53.9822 10.5807 49.7977 14.5379 49.7977 19.9881C49.7977 25.4045 53.9822 29.3957 59.1182 29.3957ZM59.1182 14.2877C61.9325 14.2877 64.358 16.6035 64.358 19.9881C64.358 23.3348 61.9325 25.6887 59.1182 25.6887C56.304 25.6887 53.8785 23.339 53.8785 19.9881C53.8785 16.6035 56.304 14.2877 59.1182 14.2877ZM87.7053 11.1533V28.0384C87.7053 34.9859 83.6579 37.8236 78.8754 37.8236C74.3727 37.8236 71.6621 34.7739 70.64 32.28L74.1912 30.7828C74.8244 32.3139 76.3741 34.1207 78.87 34.1207C81.9323 34.1207 83.8301 32.2078 83.8301 28.6069V27.2539H83.6875C82.7747 28.3947 81.0159 29.3916 78.7959 29.3916C74.1505 29.3916 69.894 25.2942 69.894 20.0222C69.894 14.7119 74.1505 10.5807 78.7959 10.5807C81.0103 10.5807 82.7711 11.5774 83.6875 12.6845H83.8301V11.1533H87.7053ZM84.119 20.0222C84.119 16.7096 81.936 14.2877 79.1587 14.2877C76.3445 14.2877 73.9876 16.7096 73.9876 20.0222C73.9876 23.3009 76.3445 25.6887 79.1587 25.6887C81.936 25.6887 84.119 23.3009 84.119 20.0222ZM109.599 23.0845L112.765 25.2223C111.743 26.7535 109.281 29.3916 105.024 29.3916C99.7474 29.3916 95.8056 25.2605 95.8056 19.9841C95.8056 14.3896 99.7807 10.5765 104.569 10.5765C109.39 10.5765 111.747 14.4617 112.519 16.5613L112.941 17.6302L100.521 22.8386C101.473 24.726 102.951 25.6888 105.024 25.6888C107.102 25.6888 108.544 24.654 109.599 23.0845ZM99.8511 19.6999L108.153 16.2092C107.698 15.0342 106.324 14.2156 104.706 14.2156C102.634 14.2156 99.7474 16.0692 99.8511 19.6999Z" fill="black" fill-opacity="0.3"/>
</svg>
