<svg width="18" height="16" viewBox="0 0 18 16" fill="none" xmlns="http://www.w3.org/2000/svg">
<path d="M15.7999 2.16666C14.9166 1.281 13.7456 0.740442 12.4986 0.642633C11.2515 0.544825 10.0106 0.896213 8.99995 1.63333C7.93966 0.84469 6.61994 0.487084 5.30655 0.632523C3.99315 0.777961 2.78364 1.41564 1.92159 2.41715C1.05953 3.41865 0.608963 4.70959 0.660612 6.03C0.712261 7.35041 1.26229 8.60222 2.19994 9.53332L7.37495 14.7167C7.80829 15.1431 8.39193 15.3822 8.99995 15.3822C9.60796 15.3822 10.1916 15.1431 10.6249 14.7167L15.7999 9.53332C16.7729 8.55438 17.319 7.23022 17.319 5.84999C17.319 4.46976 16.7729 3.1456 15.7999 2.16666ZM14.6249 8.38332L9.44995 13.5583C9.39106 13.6178 9.32097 13.665 9.24373 13.6972C9.16649 13.7294 9.08363 13.746 8.99995 13.746C8.91626 13.746 8.8334 13.7294 8.75616 13.6972C8.67892 13.665 8.60883 13.6178 8.54995 13.5583L3.37494 8.35832C2.72141 7.69028 2.35545 6.79288 2.35545 5.85833C2.35545 4.92377 2.72141 4.02637 3.37494 3.35832C4.04091 2.70081 4.93909 2.33213 5.87494 2.33213C6.8108 2.33213 7.70898 2.70081 8.37495 3.35832C8.45241 3.43643 8.54458 3.49843 8.64613 3.54073C8.74768 3.58304 8.8566 3.60482 8.96661 3.60482C9.07662 3.60482 9.18554 3.58304 9.28709 3.54073C9.38864 3.49843 9.48081 3.43643 9.55828 3.35832C10.2242 2.70081 11.1224 2.33213 12.0583 2.33213C12.9941 2.33213 13.8923 2.70081 14.5583 3.35832C15.2208 4.01762 15.5988 4.91015 15.6112 5.84473C15.6237 6.77931 15.2696 7.6816 14.6249 8.35832V8.38332Z" fill="white"/>
</svg>
