<svg width="119" height="40" viewBox="0 0 119 40" fill="none" xmlns="http://www.w3.org/2000/svg">
<path d="M55.9286 14.3488H59.7527V31.0528H55.9286V14.3488ZM69.8549 21.1824C67.9014 20.5424 66.104 20.0432 66.104 18.8416V18.7776C66.104 17.7968 66.9549 17.1008 68.4352 17.1008C69.2439 17.1218 70.0435 17.2775 70.8014 17.5616L70.8253 17.5728L71.0436 17.6544C71.6459 17.8464 73.2744 18.1024 74.6447 15.9648C72.8792 14.7936 70.6118 14.0656 68.5308 14.0656C65.2293 14.0624 62.6209 16 62.6209 19.1568V19.2208C62.6209 22.4208 65.3615 23.4288 67.8202 24.1248C69.7737 24.7264 71.5392 25.168 71.5392 26.4656V26.528C71.5392 27.6352 70.5943 28.3312 68.9547 28.3312C67.7498 28.3053 66.5653 28.0148 65.4842 27.48C65.1416 27.3344 63.3618 26.7232 61.8401 28.8976C63.8497 30.4675 66.3148 31.3355 68.8606 31.3696C72.3263 31.3696 75.0367 29.6304 75.0367 26.1168V26.0544C75.0287 23.048 72.2881 21.9408 69.8613 21.1824H69.8549ZM101.583 22.7008C101.583 27.4784 97.8017 31.4336 92.6598 31.4336C87.5863 31.4336 83.8371 27.5424 83.8371 22.7648C83.8498 17.9536 87.6373 14 92.7362 14C97.8351 14 101.591 17.8912 101.591 22.6992L101.583 22.7008ZM97.7698 22.7648C97.7698 19.7904 95.6585 17.3536 92.6709 17.3536C89.6148 17.3536 87.6612 19.7536 87.6612 22.7008C87.6612 25.6752 89.7725 28.112 92.7346 28.112C95.8227 28.1104 97.7778 25.7056 97.7778 22.7632L97.7698 22.7648ZM77.5495 31.0528H81.3625V14.3488H77.5495V31.0528ZM112.901 14C110.316 14 108.774 15.36 107.702 16.9424V14.3488H103.89V31.0528H107.702V21.624C107.702 19.0304 109.246 17.48 111.451 17.48C113.72 17.48 115.01 18.9664 115.01 21.56V31.0528H118.823V20.4224C118.823 16.5312 116.65 14 112.901 14ZM54.0452 14.3488L47.2397 31.1792H43.8059L39.8352 21.4048V36.3744C39.8352 38.3768 38.2186 40 36.2245 40H3.61066C1.61655 40 0 38.3768 0 36.3744V3.6256C0 1.62324 1.61655 0 3.61066 0H36.2245C38.2186 0 39.8352 1.62324 39.8352 3.6256V14.3456H41.0653L45.5395 26.6208L50.0457 14.3456L54.0452 14.3488ZM10.8798 10.1776C10.8623 11.1695 11.4439 12.0736 12.3516 12.4654C13.2593 12.8572 14.3128 12.659 15.0176 11.9637C15.7224 11.2685 15.9386 10.2144 15.5647 9.29608C15.1907 8.3778 14.3009 7.77776 13.3129 7.7776C12.6729 7.77035 12.0563 8.01949 11.5997 8.46991C11.1431 8.92032 10.884 9.53487 10.8798 10.1776ZM34.3172 26.168L32.7429 25.5584C31.9558 27.7488 31.2754 28.1456 30.7384 28.1456C30.2014 28.1456 29.9146 27.7872 29.9146 27.0688C29.9295 26.6897 29.9894 26.3137 30.0931 25.9488L31.2387 21.8176C31.4967 20.969 31.6298 20.0872 31.6339 19.2C31.6339 16.1104 29.7728 14.4976 27.5181 14.4976C25.4069 14.4976 23.2589 16.4176 22.1866 18.4224L22.9737 14.8096H16.8551L15.9962 17.992H18.8643L17.102 25.08C15.7174 28.1696 13.1743 28.2208 12.8556 28.1488C12.3314 28.0304 11.9968 27.8288 11.9968 27.1472C12.0125 26.5907 12.0965 26.0383 12.2469 25.5024L14.9238 14.8112H8.12637L7.26593 17.992H10.0926L8.26659 25.4784C8.12872 26.0718 8.05658 26.6787 8.05148 27.288C8.05148 29.408 9.19714 30.816 11.6303 30.816C13.6491 30.816 15.284 29.6128 16.4631 27.6688L15.7444 30.568H19.7582L22.048 21.344C22.62 19.008 23.729 17.7952 25.4116 17.7952C26.7358 17.7952 27.5596 18.6224 27.5596 19.9872C27.5637 20.4251 27.5014 20.861 27.3747 21.28L26.194 25.52C26.0257 26.1039 25.9415 26.709 25.9438 27.3168C25.9438 29.3296 27.1246 30.8016 29.5943 30.8016C31.7088 30.8032 33.3866 29.44 34.3172 26.168Z" fill="black" fill-opacity="0.3"/>
</svg>
