<svg width="67" height="24" viewBox="0 0 67 24" fill="none" xmlns="http://www.w3.org/2000/svg">
<path d="M15.6619 6.43466H12.4744C12.3835 5.91193 12.2159 5.44886 11.9716 5.04545C11.7273 4.63636 11.4233 4.28977 11.0597 4.00568C10.696 3.72159 10.2813 3.50852 9.81534 3.36648C9.35511 3.21875 8.85795 3.14489 8.32386 3.14489C7.375 3.14489 6.53409 3.38352 5.80114 3.86079C5.06818 4.33239 4.49432 5.02557 4.07955 5.94034C3.66477 6.84943 3.45739 7.96023 3.45739 9.27273C3.45739 10.608 3.66477 11.733 4.07955 12.6477C4.5 13.5568 5.07386 14.2443 5.80114 14.7102C6.53409 15.1705 7.37216 15.4006 8.31534 15.4006C8.83807 15.4006 9.3267 15.3324 9.78125 15.196C10.2415 15.054 10.6534 14.8466 11.017 14.5739C11.3864 14.3011 11.696 13.9659 11.946 13.5682C12.2017 13.1705 12.3778 12.7159 12.4744 12.2045L15.6619 12.2216C15.5426 13.0511 15.2841 13.8295 14.8864 14.5568C14.4943 15.2841 13.9801 15.9261 13.3438 16.483C12.7074 17.0341 11.9631 17.4659 11.1108 17.7784C10.2585 18.0852 9.3125 18.2386 8.27273 18.2386C6.73864 18.2386 5.36932 17.8835 4.16477 17.1733C2.96023 16.4631 2.01136 15.4375 1.31818 14.0966C0.625 12.7557 0.278409 11.1477 0.278409 9.27273C0.278409 7.39205 0.627841 5.78409 1.3267 4.44886C2.02557 3.10795 2.97727 2.08239 4.18182 1.37216C5.38636 0.661931 6.75 0.306818 8.27273 0.306818C9.24432 0.306818 10.1477 0.443181 10.983 0.715908C11.8182 0.988636 12.5625 1.3892 13.2159 1.91761C13.8693 2.44034 14.4063 3.08239 14.8267 3.84375C15.2528 4.59943 15.5313 5.46307 15.6619 6.43466ZM21.6882 18.2642C20.8587 18.2642 20.1115 18.1165 19.4467 17.821C18.7876 17.5199 18.2649 17.0767 17.8786 16.4915C17.4979 15.9062 17.3075 15.1847 17.3075 14.3267C17.3075 13.5881 17.4439 12.9773 17.7166 12.4943C17.9893 12.0114 18.3615 11.625 18.8331 11.3352C19.3047 11.0455 19.8359 10.8267 20.4268 10.679C21.0234 10.5256 21.6399 10.4148 22.2763 10.3466C23.0433 10.267 23.6655 10.196 24.1428 10.1335C24.62 10.0653 24.9666 9.96307 25.1825 9.8267C25.4041 9.68466 25.5149 9.46591 25.5149 9.17045V9.11932C25.5149 8.47727 25.3246 7.98011 24.9439 7.62784C24.5632 7.27557 24.0149 7.09943 23.299 7.09943C22.5433 7.09943 21.9439 7.2642 21.5007 7.59375C21.0632 7.9233 20.7678 8.3125 20.6143 8.76136L17.7337 8.35227C17.9609 7.55682 18.3359 6.89205 18.8587 6.35795C19.3814 5.81818 20.0206 5.41477 20.7763 5.14773C21.532 4.875 22.3672 4.73864 23.282 4.73864C23.9126 4.73864 24.5405 4.8125 25.1655 4.96023C25.7905 5.10795 26.3615 5.35227 26.8786 5.69318C27.3956 6.02841 27.8104 6.4858 28.1229 7.06534C28.4411 7.64489 28.6001 8.36932 28.6001 9.23864V18H25.6342V16.2017H25.532C25.3445 16.5653 25.0803 16.9062 24.7393 17.2244C24.4041 17.5369 23.9808 17.7898 23.4695 17.983C22.9638 18.1705 22.37 18.2642 21.6882 18.2642ZM22.4893 15.9972C23.1087 15.9972 23.6456 15.875 24.1001 15.6307C24.5547 15.3807 24.9041 15.0511 25.1484 14.642C25.3984 14.233 25.5234 13.7869 25.5234 13.304V11.7614C25.4268 11.8409 25.2621 11.9148 25.0291 11.983C24.8018 12.0511 24.5462 12.1108 24.2621 12.1619C23.978 12.2131 23.6967 12.2585 23.4183 12.2983C23.1399 12.3381 22.8984 12.3722 22.6939 12.4006C22.2337 12.4631 21.8217 12.5653 21.4581 12.7074C21.0945 12.8494 20.8075 13.0483 20.5973 13.304C20.3871 13.554 20.282 13.8778 20.282 14.2756C20.282 14.8438 20.4893 15.2727 20.9041 15.5625C21.3189 15.8523 21.8473 15.9972 22.4893 15.9972ZM31.2024 18V4.90909H34.1939V7.09091H34.3303C34.5689 6.33523 34.978 5.75284 35.5575 5.34375C36.1428 4.92898 36.8104 4.72159 37.5604 4.72159C37.7308 4.72159 37.9212 4.73011 38.1314 4.74716C38.3473 4.75852 38.5263 4.77841 38.6683 4.80682V7.64489C38.5376 7.59943 38.3303 7.55966 38.0462 7.52557C37.7678 7.4858 37.4979 7.46591 37.2365 7.46591C36.674 7.46591 36.1683 7.58807 35.7195 7.83239C35.2763 8.07102 34.9268 8.40341 34.6712 8.82955C34.4155 9.25568 34.2876 9.74716 34.2876 10.304V18H31.2024ZM45.3722 23.1818C44.2642 23.1818 43.3125 23.0313 42.517 22.7301C41.7216 22.4347 41.0824 22.0369 40.5994 21.5369C40.1165 21.0369 39.7812 20.483 39.5938 19.875L42.3722 19.2017C42.4972 19.4574 42.679 19.7102 42.9176 19.9602C43.1563 20.2159 43.4773 20.4261 43.8807 20.5909C44.2898 20.7614 44.804 20.8466 45.4233 20.8466C46.2983 20.8466 47.0227 20.6335 47.5966 20.2074C48.1705 19.7869 48.4574 19.0938 48.4574 18.1278V15.6477H48.304C48.1449 15.9659 47.9119 16.2926 47.6051 16.6278C47.304 16.9631 46.9034 17.2443 46.4034 17.4716C45.9091 17.6989 45.2869 17.8125 44.5369 17.8125C43.5312 17.8125 42.6193 17.5767 41.8011 17.1051C40.9886 16.6278 40.3409 15.9176 39.858 14.9744C39.3807 14.0256 39.142 12.8381 39.142 11.4119C39.142 9.97443 39.3807 8.76136 39.858 7.77273C40.3409 6.77841 40.9915 6.02557 41.8097 5.5142C42.6278 4.99716 43.5398 4.73864 44.5455 4.73864C45.3125 4.73864 45.9432 4.86932 46.4375 5.13068C46.9375 5.38636 47.3352 5.69602 47.6307 6.05966C47.9261 6.41761 48.1506 6.75568 48.304 7.07386H48.4744V4.90909H51.517V18.2131C51.517 19.3324 51.25 20.2585 50.7159 20.9915C50.1818 21.7244 49.4517 22.2727 48.5256 22.6364C47.5994 23 46.5483 23.1818 45.3722 23.1818ZM45.3977 15.392C46.0511 15.392 46.608 15.233 47.0682 14.9148C47.5284 14.5966 47.8778 14.1392 48.1165 13.5426C48.3551 12.946 48.4744 12.2301 48.4744 11.3949C48.4744 10.571 48.3551 9.84943 48.1165 9.23011C47.8835 8.6108 47.5369 8.13068 47.0767 7.78977C46.6222 7.44318 46.0625 7.26989 45.3977 7.26989C44.7102 7.26989 44.1364 7.44886 43.6761 7.80682C43.2159 8.16477 42.8693 8.65625 42.6364 9.28125C42.4034 9.90057 42.2869 10.6051 42.2869 11.3949C42.2869 12.196 42.4034 12.8977 42.6364 13.5C42.875 14.0966 43.2244 14.5625 43.6847 14.8977C44.1506 15.2273 44.7216 15.392 45.3977 15.392ZM59.8892 18.2557C58.6108 18.2557 57.5028 17.9744 56.5653 17.4119C55.6278 16.8494 54.9006 16.0625 54.3835 15.0511C53.8722 14.0398 53.6165 12.858 53.6165 11.5057C53.6165 10.1534 53.8722 8.96875 54.3835 7.9517C54.9006 6.93466 55.6278 6.14489 56.5653 5.58239C57.5028 5.01989 58.6108 4.73864 59.8892 4.73864C61.1676 4.73864 62.2756 5.01989 63.2131 5.58239C64.1506 6.14489 64.875 6.93466 65.3864 7.9517C65.9034 8.96875 66.1619 10.1534 66.1619 11.5057C66.1619 12.858 65.9034 14.0398 65.3864 15.0511C64.875 16.0625 64.1506 16.8494 63.2131 17.4119C62.2756 17.9744 61.1676 18.2557 59.8892 18.2557ZM59.9062 15.7841C60.5994 15.7841 61.179 15.5937 61.6449 15.2131C62.1108 14.8267 62.4574 14.3097 62.6847 13.6619C62.9176 13.0142 63.0341 12.2926 63.0341 11.4972C63.0341 10.696 62.9176 9.97159 62.6847 9.32386C62.4574 8.67045 62.1108 8.15057 61.6449 7.7642C61.179 7.37784 60.5994 7.18466 59.9062 7.18466C59.196 7.18466 58.6051 7.37784 58.1335 7.7642C57.6676 8.15057 57.3182 8.67045 57.0852 9.32386C56.858 9.97159 56.7443 10.696 56.7443 11.4972C56.7443 12.2926 56.858 13.0142 57.0852 13.6619C57.3182 14.3097 57.6676 14.8267 58.1335 15.2131C58.6051 15.5937 59.196 15.7841 59.9062 15.7841Z" fill="white"/>
</svg>
