<svg width="117" height="36" viewBox="0 0 117 36" fill="none" xmlns="http://www.w3.org/2000/svg">
<path d="M27.9837 35.6472L92.9417 29.7649H22.3535L27.9837 35.6472Z" fill="black" fill-opacity="0.3"/>
<path d="M108.958 6.23535C107.672 6.23535 106.454 6.66546 105.372 7.45399V6.66546H101.176V26.1637H105.372V14.7658C105.236 12.7586 106.725 11.0382 108.62 10.8948C110.515 10.7515 112.139 12.3285 112.274 14.3357C112.274 14.4791 112.274 14.6224 112.274 14.7658V26.2354H116.47V14.7658C116.47 10.0346 113.425 6.23535 108.958 6.23535Z" fill="black" fill-opacity="0.3"/>
<path d="M90.7073 6.23535C85.8173 6.23535 82.3535 10.9001 82.3535 16.8236C82.3535 23.0432 86.7002 27.4118 91.1148 27.4118C93.3561 27.4118 96.1407 26.5973 98.5178 22.8952L94.7823 20.5258C91.9298 25.1165 87.1077 22.8211 86.5644 18.1564H98.6536C99.7403 11.0482 95.4615 6.23535 90.7073 6.23535ZM86.836 14.2321C87.719 9.56731 93.5598 9.27114 94.3748 14.2321H86.836Z" fill="black" fill-opacity="0.3"/>
<path d="M72.8963 20.5056C72.7564 24.1367 75.4845 27.2694 79.1221 27.4118C79.192 27.4118 79.262 27.4118 79.3319 27.4118C80.8009 27.3406 82.2699 26.9134 83.5291 26.2014L80.731 22.3567C80.3113 22.6415 79.8216 22.8551 79.262 22.8551C78.0728 22.8551 77.1634 21.8583 77.2334 20.648C77.2334 20.5768 77.2334 20.5768 77.2334 20.5056V12.1753H80.9408V7.54743H77.2334V2.70593H72.8963V7.54743H70.5879V12.1753H72.8963V20.5056Z" fill="black" fill-opacity="0.3"/>
<path d="M60.4531 27.4119C61.7389 27.4119 62.957 26.9818 64.0398 26.1932V26.9101H68.2355V7.41187H64.0398V18.8814C64.1751 20.8886 62.6863 22.609 60.7915 22.7524C58.8966 22.8957 57.2725 21.3187 57.1371 19.3115C57.1371 19.1681 57.1371 19.0248 57.1371 18.8814V7.41187H52.9414V18.8814C52.9414 23.6126 55.9867 27.4119 60.4531 27.4119Z" fill="black" fill-opacity="0.3"/>
<path d="M40.7763 18.2496L47.0638 26.2354H52.9413L44.5351 15.8967L51.7795 6.77014H45.902L40.7763 13.5438V0.353027H36.4707V26.2354H40.7763V18.2496Z" fill="black" fill-opacity="0.3"/>
<path d="M29.6337 26.005V26.8935H34.1177V6.75366H29.6337V7.64218C28.4041 6.75366 26.9577 6.23535 25.4389 6.23535C20.3762 6.23535 16.4707 10.9741 16.4707 16.8236C16.4707 22.673 20.3039 27.4118 25.4389 27.4118C26.9577 27.4118 28.4041 26.8935 29.6337 26.005ZM21.0271 16.8976C21.0271 13.7138 22.8352 11.1963 25.3665 11.1963C27.8979 11.1963 29.6337 13.7138 29.6337 16.8976C29.6337 20.0815 27.8979 22.599 25.3665 22.599C22.8352 22.599 21.0271 20.0815 21.0271 16.8976Z" fill="black" fill-opacity="0.3"/>
<path d="M15.5469 10.8028C15.5469 6.30455 11.9216 2.70593 7.38999 2.70593H0V26.2353H4.53159V18.9689H7.66885L13.1765 26.2353H18.8235L12.1307 17.4464C14.292 15.9239 15.5469 13.4326 15.5469 10.8028ZM7.4597 14.5398H4.53159V7.2042H7.4597C9.48149 7.2042 11.1547 8.8651 11.1547 10.872C11.1547 12.8789 9.48149 14.5398 7.4597 14.5398Z" fill="black" fill-opacity="0.3"/>
</svg>
