<svg width="93" height="40" viewBox="0 0 93 40" fill="none" xmlns="http://www.w3.org/2000/svg">
<path fill-rule="evenodd" clip-rule="evenodd" d="M6.64022 15.2424C6.64022 14.2341 7.49289 13.8462 8.8838 13.8462C10.8876 13.8462 13.3909 14.441 15.3946 15.5011V9.42467C13.2243 8.57145 11.0541 8.23529 8.8838 8.23529C3.54264 8.23529 0 10.9762 0 15.553C0 22.6891 9.97888 21.5516 9.97888 24.6286C9.97888 25.8177 8.93975 26.2057 7.45556 26.2057C5.28659 26.2057 2.50334 25.3264 0.297058 24.1372V30.291C2.72584 31.3253 5.19332 31.7647 7.45556 31.7647C12.9273 31.7647 16.6923 29.1018 16.6923 24.4733C16.6563 16.7681 6.64022 18.1383 6.64022 15.2424ZM23.9393 2.35294L17.9022 3.78582L17.8846 25.8591C17.8846 29.9377 20.6243 32.9412 24.2877 32.9412C26.3118 32.9412 27.7945 32.5278 28.6154 32.0319V26.4377C27.8296 26.7961 23.9218 28.0636 23.9218 23.9851V14.2024H28.6154V8.3328H23.9218L23.9393 2.35294ZM36.6493 10.4766L36.2708 8.51007H31V31.7647H37.0972V16.0047C38.5275 13.9584 40.9736 14.3305 41.7308 14.6227V8.51007C40.9562 8.19108 38.097 7.60636 36.6493 10.4766ZM42.9231 8.23529H50.0769V31.7647H42.9231V8.23529ZM42.9231 7.05882L50.0769 5.57565V0L42.9231 1.45577V7.05882ZM63.7564 8.23529C61.1742 8.23529 59.5022 9.47146 58.5921 10.3315L58.2398 8.66537H52.4615V40L59.0379 38.5758L59.0565 30.9705C60.004 31.6692 61.3972 32.6635 63.7205 32.6635C68.4392 32.6635 72.7308 28.7938 72.7308 20.275C72.6934 12.4814 68.3644 8.23529 63.7564 8.23529ZM62.7395 27.0588C61.1874 27.0588 60.2634 26.5299 59.634 25.8748L59.6154 16.5284C60.2992 15.798 61.2418 15.2941 62.7395 15.2941C65.1055 15.2941 66.7692 17.8636 66.7692 21.1638C66.7692 24.5396 65.1427 27.0588 62.7395 27.0588ZM93 20.0906C93 13.4641 89.8116 8.23529 83.742 8.23529C77.619 8.23529 73.9231 13.4643 73.9231 20.039C73.9231 27.8302 78.2892 31.7647 84.5579 31.7647C87.6006 31.7647 89.9196 31.0659 91.6595 30.0822V24.9052C89.9196 25.7854 87.9089 26.3291 85.3725 26.3291C82.8908 26.3291 80.6799 25.4489 80.391 22.3944H92.9453C92.9453 22.0578 93 20.7118 93 20.0906ZM79.8846 18.8235C79.8846 15.5001 81.7997 14.1176 83.5394 14.1176C85.2398 14.1176 87.0385 15.5001 87.0385 18.8235H79.8846Z" fill="black" fill-opacity="0.3"/>
</svg>
