<svg width="18" height="18" viewBox="0 0 18 18" fill="none" xmlns="http://www.w3.org/2000/svg">
<path d="M11.581 9.52835L9.83269 8.51919V4.83335C9.83269 4.61234 9.74489 4.40038 9.58861 4.2441C9.43233 4.08782 9.22037 4.00002 8.99935 4.00002C8.77834 4.00002 8.56638 4.08782 8.4101 4.2441C8.25382 4.40038 8.16602 4.61234 8.16602 4.83335V9.00002C8.16602 9.1463 8.20453 9.29 8.27767 9.41668C8.35081 9.54335 8.45601 9.64855 8.58269 9.72169L10.7477 10.9717C10.8425 11.0273 10.9474 11.0635 11.0562 11.0784C11.1651 11.0933 11.2759 11.0865 11.3821 11.0584C11.4884 11.0303 11.588 10.9815 11.6753 10.9148C11.7626 10.848 11.8359 10.7646 11.8908 10.6695C11.9458 10.5743 11.9814 10.4692 11.9955 10.3602C12.0097 10.2512 12.0022 10.1405 11.9734 10.0344C11.9446 9.92838 11.8951 9.82907 11.8277 9.74221C11.7604 9.65535 11.6766 9.58267 11.581 9.52835V9.52835ZM8.99935 0.666687C7.35118 0.666687 5.74001 1.15543 4.3696 2.07111C2.99919 2.98679 1.93109 4.28827 1.30036 5.81099C0.669626 7.33371 0.504599 9.00926 0.826142 10.6258C1.14769 12.2423 1.94136 13.7271 3.1068 14.8926C4.27223 16.058 5.75709 16.8517 7.3736 17.1732C8.99011 17.4948 10.6657 17.3297 12.1884 16.699C13.7111 16.0683 15.0126 15.0002 15.9283 13.6298C16.8439 12.2594 17.3327 10.6482 17.3327 9.00002C17.3303 6.79063 16.4515 4.67242 14.8892 3.11014C13.327 1.54787 11.2087 0.669113 8.99935 0.666687V0.666687ZM8.99935 15.6667C7.68081 15.6667 6.39188 15.2757 5.29555 14.5432C4.19922 13.8106 3.34474 12.7694 2.84016 11.5512C2.33557 10.3331 2.20355 8.99263 2.46078 7.69942C2.71802 6.40621 3.35296 5.21833 4.28531 4.28598C5.21766 3.35363 6.40554 2.71869 7.69875 2.46145C8.99196 2.20422 10.3324 2.33624 11.5506 2.84082C12.7687 3.34541 13.8099 4.19989 14.5425 5.29622C15.275 6.39255 15.666 7.68148 15.666 9.00002C15.6638 10.7675 14.9607 12.4619 13.711 13.7116C12.4612 14.9614 10.7668 15.6645 8.99935 15.6667Z" fill="black" fill-opacity="0.3"/>
</svg>
