<svg width="152" height="30" viewBox="0 0 152 30" fill="none" xmlns="http://www.w3.org/2000/svg">
<path d="M132.941 0.584961V28.8203H137.234V23.7924L140.633 20.2358L146.912 28.8203H151.765L143.66 17.7539L151.552 9.48925H146.339L137.234 19.0716V0.584961H132.941Z" fill="black" fill-opacity="0.3"/>
<path d="M36.5071 17.6681C36.4339 16.3192 35.848 15.0562 34.8787 14.158C33.9095 13.2598 32.6367 12.8004 31.3415 12.8812C28.5753 12.7102 26.1567 14.8048 25.8143 17.6681H36.5071ZM31.8581 25.8839C33.8547 25.9243 35.7857 25.1413 37.2303 23.7056L39.9035 26.7041C37.8054 28.9357 34.8927 30.1292 31.8968 29.9851C25.4398 29.9851 21.1782 25.4805 21.1782 19.4027C21.1194 16.6428 22.1216 13.9727 23.9621 11.9856C25.8025 9.99856 28.3289 8.85907 30.9799 8.82031H31.3544C37.8114 8.82031 41.479 13.9569 41.1561 21.0566H25.8143C26.3567 24.0014 28.3971 25.8839 31.8322 25.8839" fill="black" fill-opacity="0.3"/>
<path d="M84.2194 20.0379C84.0627 16.8028 81.2354 14.2559 77.8009 14.2559C74.3664 14.2559 71.5391 16.8028 71.3824 20.0379C71.1249 22.2551 72.1775 24.427 74.1239 25.6945C76.0704 26.962 78.5972 27.121 80.705 26.1086C82.8128 25.0962 84.1622 23.0755 84.2194 20.8457C84.2194 20.5806 84.2194 20.3156 84.2194 20.0379ZM67.1124 20.0379C66.8859 14.7828 71.2174 10.3483 76.7903 10.1297H77.2722C79.8397 10.1178 82.2846 11.1644 83.965 12.9949V1.76147H88.2351V29.6179H84.0186V26.9294C82.359 28.881 79.8447 30.0106 77.1918 29.9966C74.4866 29.9798 71.8992 28.9505 69.9989 27.1349C68.0986 25.3194 67.041 22.8664 67.0588 20.3156V20.0758" fill="black" fill-opacity="0.3"/>
<path d="M112.941 25.2261L116.702 23.2072C117.703 25.0659 119.609 26.2015 121.66 26.162C124.003 26.162 125.214 24.9186 125.214 23.488C125.214 22.0574 123.038 21.4958 120.526 20.9744C117.204 20.239 113.766 19.1026 113.766 14.9444C113.766 11.7623 116.702 8.79414 121.312 8.83425C124.425 8.65715 127.402 10.1772 129.167 12.8453L125.677 14.8241C124.708 13.3182 123.055 12.4425 121.312 12.5111C119.084 12.5111 117.951 13.6475 117.951 14.9311C117.951 16.2146 119.741 16.8029 122.561 17.4447C125.768 18.1667 129.412 19.263 129.412 23.4613C129.412 26.3091 127.068 30.0127 121.518 29.9726C118.028 30.231 114.701 28.4053 112.941 25.2662" fill="black" fill-opacity="0.3"/>
<path d="M0.293898 8.82031V12.6563H12.7496L0 24.8917V28.8203H18.8235V24.9711H5.90596L18.6416 12.7489V8.82031H0.293898Z" fill="black" fill-opacity="0.3"/>
<path d="M54.1168 8.82031C48.9807 8.82031 44.7051 12.0369 44.7051 17.3677V28.8203H49.0345V17.8865C48.8798 16.648 49.2466 15.4014 50.0529 14.4261C50.8592 13.4508 52.0374 12.8284 53.3235 12.6984C53.6232 12.6724 53.9247 12.6724 54.2244 12.6984C57.4782 12.6984 59.1185 14.618 59.1185 17.8865V28.8203H63.5286V17.3677C63.5286 12.0369 59.2261 8.82031 54.1168 8.82031Z" fill="black" fill-opacity="0.3"/>
<path d="M104.744 17.6687C104.674 16.3185 104.088 15.0532 103.115 14.1542C102.143 13.2552 100.865 12.797 99.5653 12.8814C96.7871 12.7031 94.3544 14.7997 94.0109 17.6687H104.744ZM100.083 25.8851C102.089 25.9276 104.03 25.1445 105.482 23.7066L108.149 26.7054C106.056 28.9278 103.152 30.1208 100.161 29.9866C93.6872 29.9866 89.4146 25.4817 89.4146 19.4034C89.3556 16.6525 90.3533 13.9903 92.1874 12.0047C94.0214 10.019 96.541 8.87323 99.1898 8.82031H99.5653C106.039 8.82031 109.716 13.9572 109.392 21.0575H94.0109C94.5417 24.0025 96.6004 25.8851 100.031 25.8851" fill="black" fill-opacity="0.3"/>
</svg>
